<?xml version="1.0" encoding="utf-8"?><!-- Uploaded to: SVG Repo, www.svgrepo.com, Generator: SVG Repo Mixer Tools -->
<svg fill="#000000" width="800px" height="800px" viewBox="0 0 24 24" id="create-note" xmlns="http://www.w3.org/2000/svg" class="icon multi-color"><polygon id="secondary-fill" points="10.17 11 9 15 13 13.83 17.69 9.14 14.86 6.31 10.17 11" style="fill: rgb(44, 169, 188); stroke-width: 2;"></polygon><path id="primary-stroke" d="M20,4a2.09,2.09,0,0,0-2.95.12L10.17,11,9,15l4-1.17L19.88,7A2.09,2.09,0,0,0,20,4Z" style="fill: none; stroke: rgb(0, 0, 0); stroke-linecap: round; stroke-linejoin: round; stroke-width: 2;"></path><path id="secondary-stroke" d="M12,3H4A1,1,0,0,0,3,4V20a1,1,0,0,0,1,1H20a1,1,0,0,0,1-1V12" style="fill: none; stroke: rgb(44, 169, 188); stroke-linecap: round; stroke-linejoin: round; stroke-width: 2;"></path></svg>